<?xml version="1.0" encoding="UTF-8"?>
<svg version="1.1" viewBox="0 0 2048 519" width="1280" height="1280" xmlns="http://www.w3.org/2000/svg">
<path transform="translate(0)" d="m0 0h2048v519h-2048z" fill="#FEFFFE"/>
<path transform="translate(289,52)" d="m0 0h25l22 3 22 5 24 9 23 12 12 8 14 11 15 14 9 10 11 15 11 18 10 21 7 21 5 23 2 20v23l-3 23-5 21-5 15-8 18-10 18-13 18-14 15-11 11-17 13-13 8-19 10-18 7-22 6-17 3-10 1h-30l-27-4-25-7-21-9-20-11-15-11-11-9-17-17-13-17-9-14-10-19-7-18-6-23-3-18-1-10v-25l3-24 6-24 7-19 8-16 8-14 10-14 13-15 12-12 14-11 15-10 14-8 24-10 21-6 23-4z" fill="#2456DE"/>
<path transform="translate(959,172)" d="m0 0h36v166l-1 1h-35v-6l-15 7-4 1h-20l-13-4-9-6-9-8-7-11-5-13-2-18 2-15 6-15 9-12 10-8 8-4 12-3h14l13 3 10 5z" fill="#2456DE"/>
<path transform="translate(617,224)" d="m0 0h12l12 3 11 7 3 3 4-2 9-6 11-4 6-1h12l13 3 9 5 8 7 6 10 3 10 1 23v31l-1 26h-35l-1-1-1-69-3-6-5-4-3-1h-11l-6 4-4 6-1 10-1 61h-35l-1-1-1-68-4-8-4-3-3-1h-11l-6 4-3 4-2 8-1 65h-35l-1-1v-111l22-1h14l1 2-1 5 14-7z" fill="#2456DE"/>
<path transform="translate(1818,224)" d="m0 0h9l11 2 10 4 6 4v-7h35v112h-35v-7l-17 8-6 1h-16l-13-4-10-6-8-7-8-12-5-15-1-9v-11l3-16 7-14 9-10 11-8 12-4z" fill="#222A38"/>
<path transform="translate(264,132)" d="m0 0h9l5 3 4 7 17 61 11 39 17 60 6 22 1 1 15-52 5-14 6-8 8-6 8-3 5-1h29l7 2 4 5 1 5-2 5-4 4-3 1-32 1-5 3-4 9-13 46-12 42-4 6-8 3-7-1-6-5-4-11-15-54-17-61-16-56-2-6-11 39-7 23-5 9-6 7-10 5-8 1h-33l-6-5-1-2v-8l4-5 5-2 32-1 5-3 6-19 18-64 5-16 5-5z" fill="#FEFFFE"/>
<path transform="translate(1235,224)" d="m0 0h16l14 3 12 6 9 7 9 10 7 14 2 10v17l-3 12-6 12-8 10-13 9-11 5-9 2h-22l-15-4-10-6-10-8-9-12-4-10-2-7v-23l4-13 7-11 6-7 13-9 12-5z" fill="#222A39"/>
<path transform="translate(800,224)" d="m0 0h17l14 3 14 7 9 8 7 11 5 13 1 7v17l-2 5-77 1 3 7 6 5 7 3 5 1h10l11-4 8-6 4 1 17 17-1 4-8 7-14 7-11 3h-24l-15-4-11-6-9-7-9-12-5-12-2-9v-16l4-16 7-12 6-7 14-10 14-5z" fill="#2456DE"/>
<path transform="translate(1496,224)" d="m0 0h13l12 2 13 5 12 9 9 13 4 11 2 14v8l-2 9h-78l4 8 7 6 8 3h14l12-5 6-5 4 2 17 17-6 7-9 6-8 4-13 3h-19l-15-3-14-7-10-8-8-11-5-11-2-9v-18l3-12 6-12 8-10 14-10 10-4z" fill="#222A39"/>
<path transform="translate(1384,224)" d="m0 0 13 1 13 5 11 10 5 8 3 9 1 7v74l-1 1h-35l-1-63-2-10-4-5-6-3-7-1-9 3-5 5-3 13-1 61h-35l-1-1v-111h37v6l12-6 6-2z" fill="#222A3A"/>
<path transform="translate(1704,181)" d="m0 0h36l1 45 24 1v30l-1 1h-24v80l-1 1h-35v-81l-25-1v-30l24-1z" fill="#222A39"/>
<path transform="translate(1125,224)" d="m0 0h14l12 2 12 5 11 8 3 4-1 2h-2v2l-17 17-5 1-7-5-7-2h-9l-8 3-7 5-4 8-1 3v11l3 8 6 7 9 4h13l9-4 6-4 22 22-2 4-8 7-12 6-13 3h-20l-15-4-11-6-12-11-7-10-4-10-2-9v-15l3-14 5-10 9-11 12-9 8-4 10-3z" fill="#222A39"/>
<path transform="translate(1623,224)" d="m0 0h14l12 2 12 5 10 7 3 3-1 4-7 7-7 8-6 5-4-1-6-4-7-2h-9l-8 3-7 5-4 8-1 3v11l3 8 6 7 9 4h13l9-4 6-4 22 22-2 4-8 7-12 6-13 3h-20l-15-4-11-6-9-7-9-12-5-12-2-9v-16l3-13 5-10 9-11 12-9 8-4 10-3z" fill="#222A39"/>
<path transform="translate(1051,226)" d="m0 0 4 1v111l-1 1h-34l-1-1v-111z" fill="#2456DE"/>
<path transform="translate(1239,257)" d="m0 0h8l10 4 7 8 3 7v13l-3 8-5 6-10 5h-12l-9-4-6-7-3-7-1-10 3-10 7-8 7-4z" fill="#FEFFFE"/>
<path transform="translate(1827,257)" d="m0 0h8l10 4 7 8 3 8v10l-3 9-7 8-6 3-4 1h-10l-10-5-6-8-2-6v-13l5-10 7-6z" fill="#FEFFFE"/>
<path transform="translate(933,257)" d="m0 0 11 1 9 5 4 5 4 11v8l-4 10-6 7-9 4h-10l-10-4-6-7-3-7v-14l5-10 7-6z" fill="#FEFFFE"/>
<path transform="translate(1031,173)" d="m0 0h11l8 4 5 7 1 3v12l-5 8-7 5-3 1h-8l-8-4-6-7-2-7 1-9 3-6 6-5z" fill="#2456DE"/>
<path transform="translate(1501,252)" d="m0 0h7l9 3 7 7 2 4v3l-5 1h-39l-1-4 5-7 10-6z" fill="#FEFFFE"/>
<path transform="translate(807,252)" d="m0 0h7l9 3 7 7 2 4v3l-44 1-1-3 6-8 7-5z" fill="#FEFFFE"/>
</svg>
